<?xml version="1.0"?>
<svg xmlns="http://www.w3.org/2000/svg" height="512px" viewBox="-117 -21 681 681.33334" width="512px"><g><path d="m440.898438 12.71875c0-6.976562-5.65625-12.6367188-12.632813-12.6367188h-421.867187c-6.976563 0-12.636719 5.6601568-12.636719 12.6367188v613.476562c0 6.980469 5.660156 12.636719 12.636719 12.636719h314.964843c.417969 0 .839844-.023437 1.257813-.0625.230468-.023437.453125-.066406.683594-.101562.175781-.023438.355468-.042969.535156-.082031.285156-.054688.566406-.132813.847656-.210938.113281-.027344.230469-.054688.339844-.085938.289062-.089843.570312-.191406.847656-.300781.109375-.042969.210938-.070312.316406-.113281.265625-.113281.523438-.242188.78125-.367188.113282-.058593.230469-.105468.339844-.164062.238281-.128906.464844-.269531.6875-.410156.128906-.078125.257812-.148438.382812-.230469.21875-.144531.421876-.304687.628907-.460937.121093-.097657.25-.183594.367187-.28125.273438-.21875.527344-.457032.777344-.699219.046875-.042969.097656-.082031.144531-.128907l106.902344-106.898437c0-.003906.003906-.011719.007813-.015625.394531-.394531.75-.816406 1.09375-1.261719.074218-.101562.148437-.203125.226562-.308593.320312-.453126.621094-.914063.882812-1.40625.019532-.035157.035157-.070313.054688-.105469.238281-.460938.445312-.941407.628906-1.441407.039063-.09375.078125-.199218.109375-.300781.179688-.527343.335938-1.0625.449219-1.617187.003906-.023438.003906-.050782.011719-.074219.097656-.5.152343-1.019531.1875-1.539063.011719-.152343.019531-.300781.023437-.453124.007813-.136719.019532-.273438.019532-.414063zm-421.863282 549.179688c.605469.089843 1.21875.152343 1.847656.152343h208.453126c6.980468 0 12.636718-5.660156 12.636718-12.636719 0-6.980468-5.65625-12.636718-12.636718-12.636718h-208.453126c-.628906 0-1.242187.058594-1.847656.152344v-511.574219h396.59375v481.308593h-94.265625c-6.976562 0-12.636719 5.652344-12.636719 12.632813v94.261719h-289.691406zm314.964844 33.792968v-63.757812h63.757812zm0 0" data-original="#000000" class="active-path" data-old_color="#EFEFEF" fill="#565656"/><path d="m248.335938 233.390625h134.914062c6.976562 0 12.636719-5.65625 12.636719-12.636719v-29.261718c0-16.574219-4.746094-32.699219-13.722657-46.632813-6.664062-10.335937-16.75-17.597656-28.265624-20.730469 1.28125-3.652344 1.988281-7.570312 1.988281-11.660156v-29.515625c0-19.417969-15.796875-35.21875-35.214844-35.21875h-9.085937c-19.417969 0-35.210938 15.800781-35.210938 35.21875v29.515625c0 4.023438.679688 7.882812 1.929688 11.484375-11.773438 3.035156-22.101563 10.382813-28.878907 20.90625-8.976562 13.933594-13.722656 30.058594-13.722656 46.632813v29.261718c0 6.980469 5.65625 12.636719 12.632813 12.636719zm53.304687-150.4375c0-5.488281 4.464844-9.945313 9.945313-9.945313h9.085937c5.480469 0 9.945313 4.457032 9.945313 9.945313v29.515625c0 5.261719-4.105469 9.566406-9.277344 9.914062h-10.417969c-5.171875-.347656-9.28125-4.652343-9.28125-9.914062zm-40.667969 108.539063c0-11.710938 3.355469-23.101563 9.695313-32.945313 4.394531-6.816406 11.859375-10.890625 19.972656-10.890625h50.304687c8.113282 0 15.578126 4.074219 19.976563 10.890625 6.34375 9.84375 9.695313 21.234375 9.695313 32.945313v16.625h-109.644532zm0 0" data-original="#000000" class="active-path" data-old_color="#EFEFEF" fill="#565656"/><path d="m58.367188 104.097656h81.886718c6.976563 0 12.636719-5.65625 12.636719-12.636718 0-6.976563-5.660156-12.636719-12.636719-12.636719h-81.886718c-6.972657 0-12.632813 5.660156-12.632813 12.636719 0 6.980468 5.65625 12.636718 12.632813 12.636718zm0 0" data-original="#000000" class="active-path" data-old_color="#EFEFEF" fill="#565656"/><path d="m196.789062 121.6875h-138.421874c-6.972657 0-12.632813 5.65625-12.632813 12.636719 0 6.976562 5.660156 12.632812 12.632813 12.632812h138.421874c6.976563 0 12.636719-5.65625 12.636719-12.632812 0-6.980469-5.660156-12.636719-12.636719-12.636719zm0 0" data-original="#000000" class="active-path" data-old_color="#EFEFEF" fill="#565656"/><path d="m58.367188 189.824219h57.03125c6.980468 0 12.636718-5.65625 12.636718-12.636719 0-6.976562-5.65625-12.636719-12.636718-12.636719h-57.03125c-6.972657 0-12.632813 5.660157-12.632813 12.636719 0 6.980469 5.65625 12.636719 12.632813 12.636719zm0 0" data-original="#000000" class="active-path" data-old_color="#EFEFEF" fill="#565656"/><path d="m192.0625 207.410156h-133.695312c-6.972657 0-12.632813 5.660156-12.632813 12.636719 0 6.980469 5.660156 12.636719 12.632813 12.636719h133.695312c6.976562 0 12.636719-5.65625 12.636719-12.636719 0-6.976563-5.660157-12.636719-12.636719-12.636719zm0 0" data-original="#000000" class="active-path" data-old_color="#EFEFEF" fill="#565656"/><path d="m98.046875 365.558594h-40.941406c-6.980469 0-12.636719 5.660156-12.636719 12.636718v132.675782c0 6.976562 5.65625 12.636718 12.636719 12.636718h40.941406c6.976563 0 12.636719-5.660156 12.636719-12.636718v-132.675782c0-6.976562-5.660156-12.636718-12.636719-12.636718zm-12.632813 132.675781h-15.671874v-107.402344h15.671874zm0 0" data-original="#000000" class="active-path" data-old_color="#EFEFEF" fill="#565656"/><path d="m183.53125 309.476562h-40.9375c-6.980469 0-12.636719 5.660157-12.636719 12.636719v188.757813c0 6.976562 5.65625 12.636718 12.636719 12.636718h40.9375c6.980469 0 12.636719-5.660156 12.636719-12.636718v-188.757813c0-6.976562-5.65625-12.636719-12.636719-12.636719zm-12.636719 188.757813h-15.664062v-163.484375h15.664062zm0 0" data-original="#000000" class="active-path" data-old_color="#EFEFEF" fill="#565656"/><path d="m285.234375 510.871094v-132.675782c0-6.976562-5.660156-12.636718-12.636719-12.636718h-40.941406c-6.976562 0-12.636719 5.660156-12.636719 12.636718v132.675782c0 6.976562 5.660157 12.636718 12.636719 12.636718h40.941406c6.976563 0 12.636719-5.660156 12.636719-12.636718zm-25.273437-12.636719h-15.667969v-107.402344h15.667969zm0 0" data-original="#000000" class="active-path" data-old_color="#EFEFEF" fill="#565656"/><path d="m317.390625 494.449219h73.050781c6.980469 0 12.636719-5.660157 12.636719-12.636719v-165.53125c0-6.980469-5.65625-12.636719-12.636719-12.636719h-73.050781c-6.972656 0-12.628906 5.65625-12.628906 12.636719v165.53125c0 6.976562 5.65625 12.636719 12.628906 12.636719zm12.636719-165.53125h47.777344v140.257812h-47.777344zm0 0" data-original="#000000" class="active-path" data-old_color="#EFEFEF" fill="#565656"/><path d="m155.925781 186.804688c2.285157 1.738281 4.976563 2.582031 7.652344 2.582031 3.804687 0 7.570313-1.710938 10.058594-4.976563 4.226562-5.550781 3.15625-13.480468-2.394531-17.710937l-.332032-.253907c-5.550781-4.226562-13.480468-3.15625-17.707031 2.394532-4.230469 5.550781-3.160156 13.480468 2.390625 17.710937zm0 0" data-original="#000000" class="active-path" data-old_color="#EFEFEF" fill="#565656"/><path d="m285.007812 539.488281-.332031-.25c-5.546875-4.234375-13.476562-3.164062-17.707031 2.386719s-3.160156 13.480469 2.390625 17.710938l.332031.253906c2.292969 1.742187 4.980469 2.585937 7.652344 2.585937 3.804688 0 7.574219-1.714843 10.058594-4.980469 4.230468-5.550781 3.15625-13.480468-2.394532-17.707031zm0 0" data-original="#000000" class="active-path" data-old_color="#EFEFEF" fill="#565656"/></g> </svg>
