<?xml version="1.0"?>
<svg xmlns="http://www.w3.org/2000/svg" height="512px" viewBox="0 0 512 512.00002" width="512px" class=""><g><path d="m504.179688 297.335938h-103.703126v-102.90625c0-4.199219-3.402343-7.605469-7.605468-7.605469-4.199219 0-7.601563 3.40625-7.601563 7.605469v102.90625h-37.515625v-189.085938c0-4.199219-3.402344-7.605469-7.601562-7.605469h-28.894532v-32.960937h42.914063c17.148437 0 31.097656 13.949218 31.097656 31.097656v70.300781c0 4.199219 3.402344 7.605469 7.601563 7.605469 4.203125 0 7.605468-3.40625 7.605468-7.605469v-70.300781c0-25.53125-20.769531-46.304688-46.304687-46.304688h-43.378906c-2.15625-10.679687-11.613281-18.746093-22.921875-18.746093h-33.640625c-9.984375-20.375-31.050781-33.730469-53.988281-33.730469-22.941407 0-44.007813 13.355469-53.992188 33.730469h-33.640625c-11.308594 0-20.761719 8.066406-22.921875 18.746093h-43.382812c-25.53125 0-46.304688 20.769532-46.304688 46.304688v80.4375c0 4.199219 3.40625 7.605469 7.605469 7.605469s7.601562-3.40625 7.601562-7.605469v-80.4375c0-17.148438 13.949219-31.097656 31.097657-31.097656h42.917968v32.960937h-28.898437c-4.199219 0-7.601563 3.40625-7.601563 7.605469v334.574219c0 4.199219 3.402344 7.601562 7.601563 7.601562h192.90625c4.199219 0 7.605469-3.402343 7.605469-7.601562s-3.40625-7.605469-7.605469-7.605469h-185.300781v-319.367188h21.292968v22.8125c0 4.199219 3.402344 7.605469 7.601563 7.605469h206.828125c4.203125 0 7.605468-3.40625 7.605468-7.605469v-22.8125h21.289063v181.484376h-53.96875c-4.199219 0-7.601563 3.402343-7.601563 7.601562v191.855469h-224.671874c-17.148438 0-31.097657-13.949219-31.097657-31.097657v-261.128906c0-4.199218-3.402343-7.601562-7.601562-7.601562s-7.605469 3.402344-7.605469 7.601562v261.128906c0 25.535157 20.769531 46.304688 46.304688 46.304688h457.875c4.203124 0 7.605468-3.40625 7.605468-7.605469v-199.457031c0-4.199219-3.40625-7.601562-7.605468-7.601562zm-399.75-166.273438v-73.945312c0-4.511719 3.671874-8.179688 8.179687-8.179688h38.613281c3.152344 0 5.976563-1.941406 7.101563-4.886719 6.605469-17.25 23.449219-28.84375 41.917969-28.84375 18.464843 0 35.308593 11.59375 41.914062 28.84375 1.125 2.945313 3.949219 4.886719 7.101562 4.886719h38.613282c4.511718 0 8.179687 3.667969 8.179687 8.179688 0 0-.003906 2.949218-.003906 2.964843 0 .011719.003906 48.191407.003906 48.207031v22.769532h-191.621093zm318.886718 181.480469v74.679687l-28.199218-15.910156c-1.160157-.652344-2.449219-.980469-3.734376-.980469-1.289062 0-2.578124.328125-3.738281.980469l-28.199219 15.910156v-74.679687zm73.261719 184.25h-142.386719c-.003906 0-.011718 0-.019531 0h-67.988281v-184.25h58.054687v87.699219c0 2.703124 1.433594 5.203124 3.769531 6.566406 2.332032 1.363281 5.214844 1.382812 7.570313.054687l35.804687-20.195312 35.800782 20.195312c1.160156.65625 2.449218.984375 3.738281.984375 1.324219 0 2.648437-.347656 3.835937-1.039062 2.332032-1.363282 3.769532-3.863282 3.769532-6.566406v-87.699219h58.050781zm0 0" data-original="#000000" class="" data-old_color="#CACACA" fill="#606060"/><path d="m200.238281 28.246094c-17.554687 0-31.835937 14.28125-31.835937 31.835937 0 17.558594 14.28125 31.84375 31.835937 31.84375 17.558594 0 31.84375-14.285156 31.84375-31.84375 0-17.554687-14.285156-31.835937-31.84375-31.835937zm0 48.472656c-9.167969 0-16.628906-7.464844-16.628906-16.636719s7.460937-16.628906 16.628906-16.628906c9.171875 0 16.636719 7.457031 16.636719 16.628906s-7.464844 16.636719-16.636719 16.636719zm0 0" data-original="#000000" class="" data-old_color="#CACACA" fill="#606060"/><path d="m143.730469 188.703125c-3.722657-1.945313-8.316407-.507813-10.261719 3.214844l-17.113281 32.742187-10.222657-16.632812c-2.199218-3.574219-6.882812-4.691406-10.460937-2.496094-3.578125 2.199219-4.695313 6.882812-2.496094 10.460938l17.234375 28.042968c1.386719 2.253906 3.84375 3.621094 6.476563 3.621094.089843 0 .179687 0 .265625-.003906 2.734375-.097656 5.207031-1.652344 6.476562-4.078125l23.316406-44.609375c1.945313-3.722656.507813-8.316406-3.214843-10.261719zm0 0" data-original="#000000" class="" data-old_color="#CACACA" fill="#606060"/><path d="m305.972656 217.746094c0-4.199219-3.402344-7.601563-7.601562-7.601563h-127.75c-4.199219 0-7.601563 3.402344-7.601563 7.601563 0 4.199218 3.402344 7.605468 7.601563 7.605468h127.75c4.199218 0 7.601562-3.40625 7.601562-7.605468zm0 0" data-original="#000000" class="" data-old_color="#CACACA" fill="#606060"/><path d="m143.730469 275.429688c-3.722657-1.945313-8.316407-.507813-10.261719 3.214843l-17.113281 32.742188-10.222657-16.632813c-2.199218-3.578125-6.882812-4.691406-10.460937-2.496094-3.578125 2.199219-4.695313 6.882813-2.496094 10.460938l17.234375 28.039062c1.386719 2.257813 3.84375 3.625 6.476563 3.625.089843 0 .179687-.003906.265625-.003906 2.734375-.097656 5.207031-1.652344 6.476562-4.078125l23.316406-44.609375c1.945313-3.722656.507813-8.316406-3.214843-10.261718zm0 0" data-original="#000000" class="" data-old_color="#CACACA" fill="#606060"/><path d="m170.621094 296.867188c-4.199219 0-7.601563 3.40625-7.601563 7.605468 0 4.199219 3.402344 7.605469 7.601563 7.605469h81.109375c4.203125 0 7.605469-3.40625 7.605469-7.605469 0-4.199218-3.402344-7.605468-7.605469-7.605468zm0 0" data-original="#000000" class="" data-old_color="#CACACA" fill="#606060"/></g> </svg>
