<?xml version="1.0" encoding="UTF-8" ?>
<!DOCTYPE svg PUBLIC "-//W3C//DTD SVG 1.1//EN" "http://www.w3.org/Graphics/SVG/1.1/DTD/svg11.dtd">
<svg width="157pt" height="40pt" viewBox="0 0 157 40" version="1.1" xmlns="http://www.w3.org/2000/svg">
<g id="#901c1fff">
<path fill="#901c1f" opacity="1.00" d=" M 56.19 4.21 C 61.99 2.12 68.32 1.69 74.40 2.44 C 78.68 3.05 83.43 6.09 83.32 10.89 C 83.36 18.01 77.51 23.22 72.40 27.33 C 65.57 32.22 58.08 36.66 49.86 38.65 C 51.31 37.81 52.79 37.03 54.24 36.18 C 61.07 32.29 67.81 28.01 73.31 22.33 C 75.86 19.43 78.51 16.04 78.48 11.99 C 78.38 8.05 74.82 4.87 71.03 4.50 C 66.59 4.03 62.12 4.46 57.68 4.78 C 53.43 6.05 49.06 6.89 44.75 7.98 C 48.52 6.61 52.31 5.24 56.19 4.21 Z" />
</g>
<g id="#3a3737e5">
<path fill="#3a3737" opacity="0.90" d=" M 44.35 13.05 C 43.84 11.60 44.90 10.33 46.14 9.75 C 47.66 12.89 47.07 16.62 47.79 19.99 C 47.94 25.67 49.69 31.30 48.93 36.98 C 47.84 38.93 45.60 39.30 43.56 39.30 C 44.15 37.17 45.91 35.91 47.64 34.74 C 46.17 27.57 45.42 20.28 44.35 13.05 Z" />
<path fill="#3a3737" opacity="0.90" d=" M 1.09 17.66 C 1.68 14.80 4.67 13.74 6.93 12.49 C 8.82 13.29 10.66 14.19 12.43 15.23 C 13.97 14.36 15.50 13.48 17.03 12.59 C 20.05 13.50 23.73 15.31 23.79 18.96 C 23.94 24.24 24.02 29.55 23.73 34.83 C 22.99 35.20 22.24 35.53 21.47 35.82 C 20.45 29.88 21.02 23.82 21.03 17.83 C 19.28 16.04 16.26 15.26 14.36 17.30 C 12.82 23.25 14.72 29.55 13.28 35.52 C 12.72 35.41 11.61 35.21 11.05 35.11 C 10.36 29.46 11.39 23.72 10.56 18.08 C 9.58 14.90 3.73 15.49 3.72 19.01 C 3.38 24.46 3.84 29.92 3.46 35.37 C 2.62 35.34 1.79 35.31 0.95 35.29 C 1.13 29.41 0.79 23.53 1.09 17.66 Z" />
<path fill="#3a3737" opacity="0.90" d=" M 26.46 16.50 C 27.96 14.27 30.68 13.54 33.01 12.54 C 36.27 13.67 39.91 15.45 40.83 19.11 C 41.29 24.46 40.86 29.85 41.01 35.21 C 40.14 35.30 39.28 35.40 38.42 35.49 C 38.19 33.16 38.07 30.82 37.99 28.48 C 34.63 28.58 31.26 28.59 27.90 28.57 C 27.78 30.89 27.87 33.26 27.24 35.52 C 26.68 35.43 25.58 35.24 25.03 35.15 C 24.56 31.76 24.77 28.33 24.72 24.93 C 24.75 22.07 24.56 18.86 26.46 16.50 M 28.40 18.37 C 27.45 20.68 27.85 23.30 27.71 25.74 C 31.18 25.77 34.64 25.77 38.10 25.76 C 38.09 23.48 38.07 21.19 38.06 18.91 C 35.91 15.65 30.75 14.88 28.40 18.37 Z" />
<path fill="#3a3737" opacity="0.90" d=" M 86.03 14.84 C 85.71 13.14 88.13 12.36 88.75 14.01 C 89.08 16.40 88.87 18.83 88.83 21.24 C 90.02 20.26 91.22 19.29 92.45 18.36 C 92.95 16.94 93.84 15.73 95.44 15.48 C 96.63 14.75 97.76 13.90 99.04 13.32 C 104.70 12.54 110.42 12.92 116.12 12.82 C 116.54 13.27 117.39 14.17 117.82 14.63 C 118.21 14.12 118.98 13.12 119.37 12.62 L 120.01 13.13 C 119.53 14.03 119.27 14.98 119.23 16.00 C 119.07 22.71 119.39 29.42 119.08 36.13 C 117.54 34.04 117.84 31.40 117.79 28.98 C 117.86 24.36 117.79 19.74 117.86 15.12 C 115.63 16.02 113.22 16.11 110.85 15.90 C 110.60 22.40 110.98 28.92 110.59 35.42 C 109.72 35.36 108.84 35.29 107.97 35.23 C 108.03 28.87 107.98 22.51 108.00 16.15 C 105.08 16.02 102.17 15.82 99.25 15.93 C 96.79 18.65 93.63 20.59 90.99 23.11 C 92.85 27.44 97.92 29.82 100.46 33.90 L 100.33 35.36 L 98.98 35.56 C 95.26 32.67 92.23 29.01 88.87 25.73 C 88.88 28.90 88.90 32.08 88.90 35.26 C 87.92 35.26 86.95 35.26 85.98 35.25 C 86.07 28.45 85.90 21.64 86.03 14.84 Z" />
<path fill="#3a3737" opacity="0.90" d=" M 126.99 13.82 C 131.78 11.03 138.51 15.57 138.22 21.01 C 138.34 25.71 138.39 30.42 138.30 35.13 C 137.79 35.28 136.75 35.58 136.23 35.73 C 134.89 30.26 136.62 24.51 135.11 19.10 C 133.44 14.65 125.88 15.21 125.16 20.03 C 124.77 25.15 125.11 30.30 125.00 35.43 C 124.32 35.28 122.97 34.96 122.29 34.80 C 121.84 30.54 122.08 26.23 122.10 21.95 C 121.99 18.58 123.83 15.18 126.99 13.82 Z" />
<path fill="#3a3737" opacity="0.90" d=" M 139.78 18.88 C 140.63 15.66 143.74 13.45 146.92 12.90 C 150.61 12.74 153.89 15.37 155.08 18.78 C 151.78 20.05 150.34 15.50 147.15 16.08 C 144.59 16.04 142.17 18.37 142.13 20.93 C 142.06 23.73 141.78 26.63 142.40 29.38 C 143.60 31.29 145.58 33.33 148.07 32.83 C 150.97 32.51 152.69 29.57 152.78 26.85 C 151.40 26.32 150.03 25.78 148.67 25.23 C 150.30 23.15 152.96 23.73 155.21 23.60 C 155.89 27.14 155.58 31.36 152.52 33.75 C 148.54 37.34 141.35 35.30 139.90 30.12 C 139.35 26.41 139.42 22.61 139.78 18.88 Z" />
<path fill="#3a3737" opacity="0.90" d=" M 120.15 15.31 C 120.45 15.39 121.04 15.55 121.34 15.62 C 119.97 22.40 122.12 29.50 119.95 36.11 C 119.84 29.20 119.40 22.19 120.15 15.31 Z" />
</g>
</svg>
